<?xml version="1.0" encoding="UTF-8"?> <svg xmlns="http://www.w3.org/2000/svg" xmlns:xlink="http://www.w3.org/1999/xlink" version="1.1" id="Layer_1" x="0px" y="0px" viewBox="0 0 510 510" style="enable-background:new 0 0 510 510;" xml:space="preserve"> <style type="text/css"> .st0{fill:#011E41;} .st1{fill:none;stroke:#011E41;stroke-width:1.4173;stroke-miterlimit:2.6131;} .st2{fill:#F1B9DF;} .st3{fill:#FFDD00;} .st4{fill:none;stroke:#FFDD00;stroke-width:0.5;stroke-miterlimit:2.6131;} .st5{fill:#8DC6E8;} .st6{fill-rule:evenodd;clip-rule:evenodd;fill:#011E41;} .st7{fill:#231F20;} </style> <g> <path class="st0" d="M24.34,324.31c-8.72,0.17-12-3.86-14.67-10.08c-0.89-2.08,3.46-3.62,3.46-3.62c-0.31-2.08-8.31-2.16-7.44-9.93 c0.35-2.62,1.33-4.66,2.88-5.6c-1.47-28.29,9.23-39.88,17.59-48.93c2.25-2.44,4.32-4.68,5.85-6.95l0.12-0.16 c24.02-28.67,48.53-48.63,71.51-62.02c24.35-14.2,47.01-21.03,65.58-23.06l-0.14-0.38c56.6-35.13,107-48.68,158.28-62.47 c6.71-1.8,13.43-3.61,18.87-5.11l1.39,0.17c2.17,1.21,3.77,3.21,4.47,5.43c0.33,1.04,0.47,2.13,0.38,3.22 c-0.08,1.1-0.4,2.2-0.97,3.23c-1.06,1.9-2.97,3.54-5.93,4.49c-6.29,2.92-14.76,5.32-24.17,7.99c-30.32,8.6-70.71,20.05-74.36,59.55 c3.67,1.76,7.32,3.62,10.93,5.59c29.81,16.23,57.24,39.2,75.99,61.6l0.13,0.18c6.32,9.71,12.26,9.16,17.47,5.76 c2.88-1.88,5.65-4.6,8.17-7.08c2.33-2.29,4.46-4.39,6.46-5.62c22.88-26.21,44.74-45.93,66.9-61.6 c22.22-15.72,44.75-27.35,68.9-37.35l2.22,2.79c-12.76,17.94-26.52,28.92-40.27,39.9c-6.57,5.24-9.45,7.14-15.86,13.11 c0.37,3.99-4.61,10.93-7.33,14.62c-2.54,3.44-6.36,6.96-11.26,11c1.14,2.93,0.09,7.51-2.01,12.07c-2.1,4.56-5.26,9.23-8.23,12.09 c-0.8,0.77-1.6,1.42-2.38,1.92c-0.11,0.65-0.18,1.57-0.26,2.66c-0.33,4.32-0.84,11.05-5.07,18.5c0.19,0.28,0.37,0.57,0.55,0.87 c2.31,3.82,4.29,9.13,5.1,13.93c0.7,4.17,0.51,8.04-1.08,10.52c4.17,3.05,7.97,7.31,10.65,12.16c2.68,4.85,4.25,10.31,3.98,15.78 c6.05,7.77,9.02,21.59,9.34,23.14c2.6,7.41,4.7,13.31,6.46,18.2c1.66,4.63,3.22,8.9,4.73,12.98l1.33,3.62l-3.67-1.22 c-15.28-5.1-27.4-14.58-37.48-26.87c-9.97-12.15-17.94-27.03-25.01-43.13l-0.12-0.18l0,0c-4.96-7.34-12.94-13.92-21.67-17.33 c-8.56-3.35-17.83-3.63-25.56,1.49l-0.1,0.07l-76.92,68.76c11.39,27.39,43.7,42.35,81.04,59.63l0.16,0.08 c7.59,2.28,11.61,4.88,13.12,7.34c0.99,1.61,1.07,3.18,0.45,4.64c-0.55,1.28-1.65,2.39-3.14,3.28c-3.68,2.19-10.21,3.22-16.23,1.98 l-0.14-0.03c-49.09-13.98-75.19-27.86-108-45.31c-3.9-2.07-7.92-4.21-10.4-5.52c-6.5,1.52-13.79,1.49-22.2-1.16 c-17.02-3.71-30.93-8.21-44.69-12.66c-21.93-7.09-43.44-14.05-76.74-17.43h-0.01c-16.62-1.71-22.61-6.82-24.41-8.91 c-6.89-0.5-12.96-1.66-17.59-3.98C28.7,332.65,25.52,329.24,24.34,324.31z"></path> <path class="st1" d="M24.34,324.31c-8.72,0.17-12-3.86-14.67-10.08c-0.89-2.08,3.46-3.62,3.46-3.62c-0.31-2.08-8.31-2.16-7.44-9.93 c0.35-2.62,1.33-4.66,2.88-5.6c-1.47-28.29,9.23-39.88,17.59-48.93c2.25-2.44,4.32-4.68,5.85-6.95l0.12-0.16 c24.02-28.67,48.53-48.63,71.51-62.02c24.35-14.2,47.01-21.03,65.58-23.06l-0.14-0.38c56.6-35.13,107-48.68,158.28-62.47 c6.71-1.8,13.43-3.61,18.87-5.11l1.39,0.17c2.17,1.21,3.77,3.21,4.47,5.43c0.33,1.04,0.47,2.13,0.38,3.22 c-0.08,1.1-0.4,2.2-0.97,3.23c-1.06,1.9-2.97,3.54-5.93,4.49c-6.29,2.92-14.76,5.32-24.17,7.99c-30.32,8.6-70.71,20.05-74.36,59.55 c3.67,1.76,7.32,3.62,10.93,5.59c29.81,16.23,57.24,39.2,75.99,61.6l0.13,0.18c6.32,9.71,12.26,9.16,17.47,5.76 c2.88-1.88,5.65-4.6,8.17-7.08c2.33-2.29,4.46-4.39,6.46-5.62c22.88-26.21,44.74-45.93,66.9-61.6 c22.22-15.72,44.75-27.35,68.9-37.35l2.22,2.79c-12.76,17.94-26.52,28.92-40.27,39.9c-6.57,5.24-9.45,7.14-15.86,13.11 c0.37,3.99-4.61,10.93-7.33,14.62c-2.54,3.44-6.36,6.96-11.26,11c1.14,2.93,0.09,7.51-2.01,12.07c-2.1,4.56-5.26,9.23-8.23,12.09 c-0.8,0.77-1.6,1.42-2.38,1.92c-0.11,0.65-0.18,1.57-0.26,2.66c-0.33,4.32-0.84,11.05-5.07,18.5c0.19,0.28,0.37,0.57,0.55,0.87 c2.31,3.82,4.29,9.13,5.1,13.93c0.7,4.17,0.51,8.04-1.08,10.52c4.17,3.05,7.97,7.31,10.65,12.16c2.68,4.85,4.25,10.31,3.98,15.78 c6.05,7.77,9.02,21.59,9.34,23.14c2.6,7.41,4.7,13.31,6.46,18.2c1.66,4.63,3.22,8.9,4.73,12.98l1.33,3.62l-3.67-1.22 c-15.28-5.1-27.4-14.58-37.48-26.87c-9.97-12.15-17.94-27.03-25.01-43.13l-0.12-0.18l0,0c-4.96-7.34-12.94-13.92-21.67-17.33 c-8.56-3.35-17.83-3.63-25.56,1.49l-0.1,0.07l-76.92,68.76c11.39,27.39,43.7,42.35,81.04,59.63l0.16,0.08 c7.59,2.28,11.61,4.88,13.12,7.34c0.99,1.61,1.07,3.18,0.45,4.64c-0.55,1.28-1.65,2.39-3.14,3.28c-3.68,2.19-10.21,3.22-16.23,1.98 l-0.14-0.03c-49.09-13.98-75.19-27.86-108-45.31c-3.9-2.07-7.92-4.21-10.4-5.52c-6.5,1.52-13.79,1.49-22.2-1.16 c-17.02-3.71-30.93-8.21-44.69-12.66c-21.93-7.09-43.44-14.05-76.74-17.43h-0.01c-16.62-1.71-22.61-6.82-24.41-8.91 c-6.89-0.5-12.96-1.66-17.59-3.98C28.7,332.65,25.52,329.24,24.34,324.31z"></path> <path class="st2" d="M246.73,174.04l-0.01,0.09l-1.29-0.71c-21.96-10.5-44.75-16.93-65.9-16.42h-0.02 c-19.6,0.32-45.58,6.65-74.03,23.23c-22.62,13.19-46.77,32.86-70.48,61.14c-1.69,2.49-3.82,4.79-6.12,7.29 c-7.61,8.24-17.28,18.71-16.72,43.42c0.03,1.34,0.09,2.73,0.19,4.16c11.29,1.23,32.62,14.28,33.87,3.7 c2.57,4.61-3.37,9.68-6.28,7.72l-29.32-9.45c-0.58,0.04-1.02,1.21-1.25,2.94c-0.18,1.37,11.01,6.83,11.27,8.59 c0.27,1.76-6.56,3.14-5.8,4.93c2.29,5.32,4.91,6.43,12.62,5.67l9.76-11.79l2.42,0.17c-0.49,2.37-5.01,12.41-10.19,15.67 c1.03,4.51,11.08,9.38,14.53,9.98c5.02-4.66,24.07-0.06,23.46-25.14c-0.63-26.17-0.78-8.39-4.36-16.16 c-0.22-0.47,7.17-14.85,7.71-16.05c1.14,0.49,0.07-4.26,0.82,3.09c1.61,15.83,7.68,40.93-10.02,52.5 c-0.03-0.12,15.78-7.94,16.61-8.56c16.25-12.17,7.22-29.89,12.57-42.82c3.66,0,11.4,3.99,17.19,7.72c-0.43-1.57-0.45-3.27,0.02-5.1 c-0.48-16.72,9.74-19.45,18.36-24.2c8.44-4.65,18.71-6.73,29.39-8.37c2.86-0.44,5.19-1.55,6.9-2.37l0,0.01 c1.67-0.79,2.89-1.38,4.11-1.15c2.87,0.53,2.85,3.94,0.81,15c-1.08,5.9-4.12,12.52-8.04,18.61c-4.19,6.52-9.44,12.47-14.4,16.31 c-4.7,3.63-14.5,4.16-22.77,2.03c-2.57-0.66-5.01-1.57-7.13-2.72c-1.26-0.69-2.42-1.46-3.42-2.32c-1.63-0.56-3.91-1.48-6.96-2.87 c-10.69-4.86-7.17,1.2-9.81,12.98c-6.44,28.81-12.55,22.84-34.87,29.33c-3.23,0.94-5.03,1.91-6.25,2.7 c1.31,1.53,6.25,5.74,21.79,7.34c33.69,3.42,55.39,10.44,77.5,17.59c13.65,4.41,27.47,8.88,44.43,12.58l0.17,0.04 c11.21,3.55,20.35,1.94,28.31-1.77c2.53-1.26,4.81-2.55,6.92-3.86c3.71-2.39,7.19-5.08,10.55-7.68 c5.19-4.01,10.11-7.82,15.28-10.13l77.77-69.52l0.2-0.16l0.21-0.14c8.87-5.87,19.35-5.61,28.96-1.85 c9.43,3.69,18.05,10.79,23.4,18.71v0.01l0.22,0.32l0.16,0.29c6.97,15.88,14.79,30.54,24.54,42.41 c8.83,10.76,19.26,19.26,32.09,24.35c-0.95-2.61-2.05-5.63-3.35-9.26c-1.4-3.88-3.14-8.12-4.65-13.06 c-0.24-0.8-19.75-11.49-20.21-12.76c-0.24-0.66,18.69,8.35,18.36,7.49l-0.06-0.25c-0.01-0.04-2.39-12.14-7.37-19.9 c-0.53-0.83-20.89-11.06-21.48-11.77l19.37,8.12c0.06-0.79,0.08-1.58,0.05-2.37c-0.13-4.17-1.46-8.31-3.54-12.07 c-2.77-5.02-6.87-9.33-11.25-12.08L385.18,274l27.1,10.26l0.15-0.1c1.6-1.18,1.76-4.59,1.1-8.52c-0.73-4.35-2.53-10.11-4.62-13.57 c-0.36-0.6-21.4,1.29-21.74,0.83l19.94-3.43l0.65-1.07c4.32-7.09,4.83-12.77,5.15-16.95c0.13-1.75-29.01,9.58-28.66,8.53 l30.16-13.77c0.68-0.35,1.46-0.95,2.27-1.74c2.65-2.55,5.51-6.79,7.43-10.97c1.79-3.9,2.76-7.58,1.85-9.33 c-0.06-0.12-30.27,14.25-30.36,14.16l28.74-15.93l1.56-1.27c5.29-4.3,14.85-9.15,13.05-17.56c2.34-3.17-23.82,11.25-24.35,7.94 l25.84-12.2l0.71-0.67c6.76-6.36,13.61-11.83,20.47-17.3c12.09-9.65,24.18-19.3,35.49-33.7c-21.54,9.3-41.84,20.12-61.89,34.3 c-22,15.55-43.7,35.16-66.44,61.23l-0.47,0.38c-1.67,0.97-3.73,2.99-5.99,5.21c-2.64,2.6-5.55,5.46-8.75,7.54 c-6.87,4.48-14.59,5.36-22.52-6.73c-18.48-22.07-45.49-44.69-74.86-60.67C253.06,177.22,249.9,175.59,246.73,174.04"></path> <path class="st3" d="M347.89,276.88c5.98-0.93,12.2,0.05,18.1,2.36c9.44,3.69,18.05,10.79,23.4,18.71v0.01l0.22,0.32l0.16,0.29 c6.97,15.88,14.79,30.54,24.54,42.41c8.83,10.76,19.26,19.26,32.09,24.35c-0.95-2.61-2.05-5.63-3.35-9.26 c-1.4-3.88-3.14-8.12-4.65-13.06c-0.24-0.8-19.75-11.49-20.21-12.76c-0.24-0.66,18.69,8.35,18.36,7.49l-0.07-0.25 c-0.01-0.04-2.39-12.14-7.37-19.89c-0.53-0.83-20.89-11.06-21.48-11.77l19.37,8.12c0.06-0.79,0.08-1.58,0.05-2.37 c-0.13-4.17-1.46-8.31-3.54-12.07c-2.77-5.02-6.87-9.33-11.25-12.08L385.18,274l27.1,10.26l0.15-0.09c1.61-1.19,1.76-4.59,1.1-8.52 c-0.73-4.35-2.53-10.11-4.62-13.57c-0.36-0.6-21.4,1.29-21.74,0.83l19.94-3.43l0.65-1.07c4.32-7.09,4.83-12.77,5.14-16.95 c0.13-1.75-29.01,9.58-28.66,8.53l30.16-13.77c0.69-0.35,1.46-0.96,2.27-1.74c2.65-2.55,5.51-6.79,7.43-10.97 c1.79-3.9,2.76-7.58,1.85-9.33c-0.06-0.12-30.27,14.25-30.36,14.16l28.74-15.93l1.56-1.27c5.29-4.3,14.85-9.15,13.05-17.56 c2.34-3.17-23.82,11.25-24.35,7.94l25.84-12.2l0.71-0.67c6.76-6.36,13.61-11.83,20.47-17.3c12.09-9.65,24.18-19.3,35.49-33.7 c-21.54,9.3-41.84,20.12-61.89,34.3c-21.8,15.42-43.32,34.82-65.85,60.55c0.48,0.91,1.02,1.83,1.66,2.77 c11.46,16.88-4.67,21.42,0.44,22.79c8.55,2.29,0.53,2.58,2.57,8.12C377.71,276.14,347.7,266.48,347.89,276.88z M56.7,339.06 c3.01,1.82,8.65,4.03,18.98,5.1c33.69,3.42,55.39,10.44,77.5,17.59c13.65,4.42,27.47,8.88,44.42,12.58l0.17,0.04 c11.21,3.54,20.35,1.94,28.31-1.77c2.53-1.26,4.81-2.55,6.92-3.86c3.71-2.39,7.19-5.08,10.55-7.68 c5.19-4.01,10.11-7.82,15.28-10.13l42.63-40.37c1.27-8.4,3.48-19.08,3.14-19.45c-2.28,0.49-36.5,27.11-38.2,28.75 c-52.89,50.83-69.85,31.52-131.56,23.4C92.73,337.71,79.34,332.82,56.7,339.06z"></path> <path class="st4" d="M347.89,276.88c5.98-0.93,12.2,0.05,18.1,2.36c9.44,3.69,18.05,10.79,23.4,18.71v0.01l0.22,0.32l0.16,0.29 c6.97,15.88,14.79,30.54,24.54,42.41c8.83,10.76,19.26,19.26,32.09,24.35c-0.95-2.61-2.05-5.63-3.35-9.26 c-1.4-3.88-3.14-8.12-4.65-13.06c-0.24-0.8-19.75-11.49-20.21-12.76c-0.24-0.66,18.69,8.35,18.36,7.49l-0.07-0.25 c-0.01-0.04-2.39-12.14-7.37-19.89c-0.53-0.83-20.89-11.06-21.48-11.77l19.37,8.12c0.06-0.79,0.08-1.58,0.05-2.37 c-0.13-4.17-1.46-8.31-3.54-12.07c-2.77-5.02-6.87-9.33-11.25-12.08L385.18,274l27.1,10.26l0.15-0.09c1.61-1.19,1.76-4.59,1.1-8.52 c-0.73-4.35-2.53-10.11-4.62-13.57c-0.36-0.6-21.4,1.29-21.74,0.83l19.94-3.43l0.65-1.07c4.32-7.09,4.83-12.77,5.14-16.95 c0.13-1.75-29.01,9.58-28.66,8.53l30.16-13.77c0.69-0.35,1.46-0.96,2.27-1.74c2.65-2.55,5.51-6.79,7.43-10.97 c1.79-3.9,2.76-7.58,1.85-9.33c-0.06-0.12-30.27,14.25-30.36,14.16l28.74-15.93l1.56-1.27c5.29-4.3,14.85-9.15,13.05-17.56 c2.34-3.17-23.82,11.25-24.35,7.94l25.84-12.2l0.71-0.67c6.76-6.36,13.61-11.83,20.47-17.3c12.09-9.65,24.18-19.3,35.49-33.7 c-21.54,9.3-41.84,20.12-61.89,34.3c-21.8,15.42-43.32,34.82-65.85,60.55c0.48,0.91,1.02,1.83,1.66,2.77 c11.46,16.88-4.67,21.42,0.44,22.79c8.55,2.29,0.53,2.58,2.57,8.12C377.71,276.14,347.7,266.48,347.89,276.88z M56.7,339.06 c3.01,1.82,8.65,4.03,18.98,5.1c33.69,3.42,55.39,10.44,77.5,17.59c13.65,4.42,27.47,8.88,44.42,12.58l0.17,0.04 c11.21,3.54,20.35,1.94,28.31-1.77c2.53-1.26,4.81-2.55,6.92-3.86c3.71-2.39,7.19-5.08,10.55-7.68 c5.19-4.01,10.11-7.82,15.28-10.13l42.63-40.37c1.27-8.4,3.48-19.08,3.14-19.45c-2.28,0.49-36.5,27.11-38.2,28.75 c-52.89,50.83-69.85,31.52-131.56,23.4C92.73,337.71,79.34,332.82,56.7,339.06z"></path> <path class="st5" d="M62.51,212.38c-9.16,8.47-18.36,18.09-27.5,28.99c-1.69,2.49-3.82,4.79-6.12,7.29 c-7.61,8.24-17.28,18.71-16.72,43.42c0.03,1.34,0.09,2.73,0.19,4.16c11.29,1.23,32.62,14.28,33.87,3.7c0.56,1,0.71,2.02,0.59,2.98 c3.24-3.03-0.96-7.36,5.68-1.63c2.55,2.21,3.03-0.72,3.03-2.57c11.35-3.54-0.69-2.9,3.41-16.79c3.62-12.26,0.94-14.05,21.42-4.54 c21.43,9.94,10.42,3.85,27.61,11.57c-1.45-20.24,9.89-24.63,18.38-29.3c2.62-1.44,5.42-2.64,8.35-3.65 c-10.35-1.6-20.63-0.64-21.09-0.83c-6.04-2.49-5.42-3.71-14.77-7.4c-33.3-13.13,6.91,19.21-15.9,16.58 c-2.81-6.41-20.2-6.51-20.37-9C61.43,239.42,69.7,224.75,62.51,212.38 M86.77,192.45c-5.23,3.79-10.52,7.93-15.83,12.45 c1.4,4.05,1.66,8.4,2.79,11.02c6.17,14.2,12.18,12.8,17.37,16.53c19.01,13.68,11.18-13.43,9.94-13.55 c-14.31-1.4-7.79-8.33-9.81-13.22C88.13,198.18,86.97,194.72,86.77,192.45z M246.73,174.04l-0.01,0.09l-1.29-0.71 c-21.96-10.5-44.75-16.93-65.9-16.42h-0.02c-12.01,0.2-26.42,2.65-42.32,8.33c8.68,3.76,11.43,2.65,21.83,4.76 c16.99,3.45-20.17,10.1-23.14,21.91c-3.45,13.75,8.66-0.63,14.83-0.88c13.97-0.56,19.91-3.33,20.47,10.65 c0.87,21.66,16.75,48.89,14.43,57.36c-1.14,4.15-9.18,4.58-18.08,3.66c-1.03,5.55-3.77,11.73-7.35,17.51 c20.52-10.14,42.28,4.86,40.38,0.04c-3.69-9.37,10.48-59.15,11.99-59.42c12.16-2.18,3.13,38.3,48.65,31.73 c13.18-1.9,15.92-22.02,45.75-0.71c16.12,11.52,1.81,10.38-6.95,10.38c-13.68,0-35.24,0.03-38.51,18.51 c8.61-13.38,32.78,8.25,52.68-7.98c7.94-6.48,29.4,9.4,31.19,2.65c2.76-4.27,5.8-11.95,6.56-16.66c0-4.23,19.9-24.21,19.91-27.71 c-6.46,3.56-26.41,32.23-40.79,8.46c-18.48-22.07-45.49-44.69-74.86-60.67C253.06,177.22,249.9,175.59,246.73,174.04z"></path> <path class="st2" d="M128.12,262.92c-7.76,4.28-13.74,10.91-16.56,21.86c-0.55,2.13-0.03,4,1.19,5.59c1,1.29,2.47,2.43,4.23,3.39 c1.84,1,3.99,1.81,6.27,2.39c7.31,1.88,15.77,1.57,19.59-1.38c4.64-3.58,9.57-9.2,13.55-15.38c3.68-5.72,6.52-11.88,7.52-17.27 c1.52-8.26,2.32-10.66,2.17-10.69c-0.05-0.01-0.81,0.35-1.84,0.85v0.01c-1.92,0.92-4.53,2.16-7.94,2.69 C145.95,256.55,136.06,258.54,128.12,262.92"></path> <path class="st3" d="M128.12,262.92c-7.76,4.28-13.74,10.91-16.56,21.86c-0.55,2.13-0.03,4,1.19,5.59c1,1.29,2.47,2.43,4.23,3.39 c1.84,1,3.99,1.81,6.27,2.39c-8.1-30.08,27.45-23.72,42.82-44.72c-0.05-0.01-0.81,0.35-1.84,0.85v0.01 c-1.92,0.92-4.53,2.16-7.94,2.69C145.95,256.55,136.06,258.54,128.12,262.92"></path> <path class="st3" d="M258.88,355.01c-2.49,1.27-4.98,2.93-7.51,4.77c-1.2,0.93-2.39,1.86-3.56,2.79c-0.88,0.69-2.9,2.19-4.9,3.66 c-1.54,1.18-3.11,2.35-4.72,3.49l-0.02,0.02c-1.77,1.33,25.37,18.43,23.42,19.72c-1.14,0.75-25.87-16.65-28.07-16.64 c-2.39,1.47-4.87,2.81-7.49,3.93c-0.63,0.3-1.27,0.59-1.93,0.88l6.97,3.7c32.62,17.35,58.56,31.15,107.26,45.02 c5.1,1.02,10.5,0.21,13.46-1.55c0.83-0.49,1.4-1.02,1.62-1.55c0.15-0.35,0.1-0.77-0.19-1.24c-1.08-1.76-4.45-3.76-11.15-5.76 l-0.25-0.09l-0.29-0.13C303.75,398.52,271.02,383.37,258.88,355.01"></path> <path class="st5" d="M215.62,156.17c2.33,0.68,4.57,1.42,6.72,2.2c0.5,0.18,14.78-7.82,15.27-7.63c0.7,0.26-12.39,8.71-11.71,8.98 c6.85,2.72,12.73,5.75,17.61,8.41c4.77-40.72,45.91-52.39,76.89-61.17c9.36-2.65,17.77-5.04,23.76-7.84l0.22-0.09 c2.01-0.64,3.25-1.64,3.88-2.77c0.3-0.54,0.46-1.12,0.51-1.71c0.05-0.6-0.03-1.22-0.23-1.82c-0.36-1.14-1.11-2.18-2.12-2.92 c-6.83,1.87-12.47,3.39-18.1,4.9c-48.8,13.12-96.79,26.02-149.96,57.58c3.21-0.26,6.33-0.36,9.37-0.32 c1.36,0.02,2.7,0.06,4.02,0.12c1.12,0.06,29.06-15.8,50.82-23.17c1.14-0.39-45.11,23.62-43.93,23.76c0.73,0.09,1.45,0.18,2.17,0.28 c3.16,0.45,4.56,0.66,7.49,1.34c0.98,0.23,32.14-16.38,31.23-13.55c-0.15,0.47-25.75,14.89-25.28,15.02 C214.69,155.9,215.16,156.03,215.62,156.17"></path> <path class="st6" d="M275.99,188.68c-3.69,2.51-5.85,14.28-2.56,20.28c8.04,14.68-5.3,25.95,3.32,35.12 c4.02,4.27-7.6,23.05,0.52,37.76c2.74,4.96,2.15-3.2,2.1-7.06c-0.26-21.1,6.14-6.83,6.58-24.82c0.21-8.6-3.16-1.03-0.09-13.9 c2.48-10.4-4.37-21.61,2.68-32.98C291.91,197.65,279.1,192.68,275.99,188.68 M225.19,163.07c-6.91,9.51-4.36,24.38-4.36,35.87 c0,3.92,8.21,7.62-0.57,18.04c-1.26,1.49,3.68,11.44,2.56,18.91c-2.36,15.7,2.95,2.04,6.85,20.1c2.22,10.28,3.67,2.4,4.36,16.81 c0.08,1.78,7.56,6.56,10.27,18.28c1.46-2.42,1.95-20.05-2.22-24.49c-2.76-2.93,3.51-10.81-3.26-15.08 c-0.43-0.27-0.13-8.48-2.56-10.38c-2.06-1.61,2.19-15.97,2.19-22.42c0-14.57,1.77-1.96-2.68-15.84c-2.63-8.21,9.4-8.5-0.27-17.05 c-8.14-7.2,15.95-14.07-7.28-20.13C227.09,165.38,224.51,164,225.19,163.07z M170.07,155.72c3.22,25.1-5.07,22.23-5.47,42.7 c-0.13,6.64,15.11,48.46,19.4,54.52c2.57,3.63,16.17,28.99,10.69,10.45c-3.73-12.61-5.31-2.13-4.85-17.7 c0.02-0.74-4.89-1.38-6-5.69c-4.56-17.64-0.97-4.98-0.97-21.85c0-24.17-8.59-8.24-2.83-33.11c2.46-10.63-8.04-17.88,4.29-27.66 C187.57,154.83,170.05,155.53,170.07,155.72z M110.04,177.11c1.37,1.21,5.85,13.89,5.85,17.9c0,13.63,7.82,3.95,5.82,25.86 c-1.58,17.28,3.26-6.03,3.26,20.5c0,26.36,7.72-11.03,7.49-18.18c-0.23-7.16-3.53-9.92-3.32-23.92c0.08-5.53-3.2-8.1-1.56-15.08 c1.9-8.05-2.93-6.34-5.54-11.86C120.74,169.55,114.76,171.78,110.04,177.11z M310.37,215.47c-1.62,3.43-6.69,17.85-5.44,20.72 c6.94,15.92-2.35,17.53,3.23,24.65c0.71,0.9-2.95,32.42-2.8,33.23c3.32-2.28,13.88-22.5,10.81-29.7 c-1.99-4.65-1.79-22.68,0.46-26.71c2.25-4.03,3-12.68-0.61-15.62C315.01,221.2,309.97,216.3,310.37,215.47z"></path> <path class="st7" d="M41.17,267.12c-1.12-1.13-2.47-2.03-3.96-2.65c-1.43-0.59-3.01-0.92-4.67-0.92c-1.66,0-3.24,0.33-4.67,0.92 c-1.49,0.62-2.83,1.52-3.96,2.65l-0.01,0.01c-1.13,1.12-2.03,2.47-2.65,3.96c-0.59,1.43-0.92,3.01-0.92,4.67 c0,1.66,0.33,3.24,0.92,4.67c0.62,1.49,1.52,2.83,2.65,3.96l0.01,0.01c1.12,1.13,2.47,2.03,3.96,2.65 c1.43,0.59,3.01,0.92,4.67,0.92c1.67,0,3.24-0.33,4.67-0.92c1.49-0.62,2.83-1.52,3.96-2.65l0.01-0.01 c1.12-1.12,2.03-2.47,2.65-3.96c0.59-1.43,0.92-3.01,0.92-4.67c0-1.66-0.33-3.24-0.92-4.67C43.21,269.59,42.31,268.25,41.17,267.12 L41.17,267.12z"></path> <path class="st0" d="M32.55,259.18c2.23,0,4.37,0.45,6.34,1.26c2.04,0.84,3.87,2.08,5.39,3.6c1.52,1.52,2.75,3.34,3.59,5.38 c0.81,1.96,1.26,4.1,1.26,6.34c0,2.23-0.45,4.37-1.26,6.33c-0.84,2.04-2.08,3.87-3.6,5.39c-1.52,1.52-3.35,2.75-5.39,3.6 c-1.96,0.81-4.1,1.26-6.34,1.26c-2.24,0-4.38-0.45-6.34-1.26c-2.04-0.85-3.86-2.08-5.38-3.6c-1.52-1.52-2.75-3.35-3.6-5.39 c-0.81-1.96-1.26-4.1-1.26-6.33c0-2.24,0.45-4.38,1.26-6.34c0.85-2.04,2.08-3.86,3.6-5.38c1.52-1.52,3.34-2.75,5.38-3.59 C28.16,259.63,30.31,259.18,32.55,259.18"></path> <path class="st2" d="M32.55,264.03c1.58,0,3.09,0.32,4.48,0.89c1.44,0.6,2.74,1.47,3.81,2.54c1.07,1.07,1.94,2.37,2.54,3.81 c0.58,1.38,0.89,2.9,0.89,4.48c0,1.58-0.32,3.09-0.89,4.48c-0.6,1.44-1.47,2.74-2.54,3.81c-1.08,1.08-2.37,1.95-3.81,2.54 c-1.39,0.57-2.9,0.89-4.48,0.89c-1.58,0-3.1-0.32-4.48-0.89c-1.44-0.6-2.73-1.47-3.81-2.54c-1.08-1.08-1.95-2.37-2.54-3.81 c-0.57-1.39-0.89-2.9-0.89-4.48c0-1.58,0.32-3.1,0.89-4.48c0.6-1.44,1.47-2.73,2.54-3.81c1.07-1.07,2.36-1.94,3.81-2.54 C29.45,264.35,30.96,264.03,32.55,264.03"></path> <path class="st6" d="M44.52,278.14c0.76,1.15-9.58-5.54-9.03,0.65c0.33,3.75-2.53,6.82-5.64,6.82c-3.11,0-5.64-3.05-5.64-6.82 c0-2.85,1.45-5.29,3.51-6.31C34.2,269.27,40.74,272.38,44.52,278.14"></path> </g> </svg> 